<?xml version="1.0" encoding="UTF-8"?>
<svg version="1.1" xmlns="http://www.w3.org/2000/svg" width="1080" height="1080">
<path d="M0 0 C356.4 0 712.8 0 1080 0 C1080 356.4 1080 712.8 1080 1080 C723.6 1080 367.2 1080 0 1080 C0 723.6 0 367.2 0 0 Z " fill="#202954" transform="translate(0,0)"/>
<path d="M0 0 C2.13264122 1.15774185 3.79089463 2.40097596 5.63671875 3.98046875 C8.63501849 6.54265216 11.80503369 8.81611526 15 11.125 C20.38820536 15.05967443 25.73504478 19.04607045 31.0625 23.0625 C36.05388991 26.82430215 41.08559715 30.51459809 46.1875 34.125 C74.43533534 54.19456686 74.43533534 54.19456686 80 67 C80.34537811 67.78166534 80.69075623 68.56333069 81.04660034 69.36868286 C82.44464648 74.69357348 82.26086171 79.8568005 82.22705078 85.33935547 C82.22734283 86.57893509 82.22763489 87.81851471 82.22793579 89.09565735 C82.22678395 92.48165421 82.21677666 95.86740503 82.20278788 99.25335836 C82.19025695 102.79675663 82.18910816 106.34015843 82.18673706 109.88357544 C82.18052922 116.58764966 82.16412786 123.29165839 82.14403808 129.99570382 C82.12165739 137.63051313 82.1106802 145.26532563 82.10064721 152.9001596 C82.07976098 168.60014428 82.04459859 184.30006368 82 200 C80.35 199.34 78.7 198.68 77 198 C77 197.34 77 196.68 77 196 C76.33355469 195.78601563 75.66710937 195.57203125 74.98046875 195.3515625 C70.99171994 193.54277208 67.77242382 191.03647986 64.3125 188.375 C63.60424072 187.83375488 62.89598145 187.29250977 62.16625977 186.73486328 C60.75311332 185.65258341 59.34185192 184.56783716 57.93261719 183.48046875 C56.29613407 182.22685156 54.63852753 181.00088325 52.9765625 179.78125 C43.49513991 172.66288966 36.33242098 162.81302896 34 151 C33.13544782 142.04318492 33.38297308 132.98795445 33.4375 124 C33.94155702 96.16329291 33.94155702 96.16329291 20.75 72.4375 C13.22645656 65.76890468 5.15497899 59.86387224 -3 54 C-5.8317199 51.92191306 -8.66311539 49.84340912 -11.4921875 47.76171875 C-13.99867526 45.94178413 -13.99867526 45.94178413 -16.8203125 44.39453125 C-17.53960937 43.93433594 -18.25890625 43.47414063 -19 43 C-19 42.34 -19 41.68 -19 41 C-19.66644531 40.78214844 -20.33289063 40.56429687 -21.01953125 40.33984375 C-24.97030854 38.56380625 -28.22296925 36.13989582 -31.6875 33.5625 C-32.36361328 33.07201172 -33.03972656 32.58152344 -33.73632812 32.07617188 C-36.80284713 29.81518622 -38.85250335 28.22124497 -41 25 C-41.5 21.625 -41.5 21.625 -41 18 C-35.82203032 12.74168252 -29.22282013 9.59885115 -22.75 6.1875 C-21.66847656 5.59001953 -20.58695313 4.99253906 -19.47265625 4.37695312 C-13.04562366 0.9851235 -7.35280074 -1.55281848 0 0 Z " fill="#F8FBFD" transform="translate(227,457)"/>
<path d="M0 0 C3.08764493 1.43592769 6.1202041 2.92497649 9.13598633 4.50341797 C11.03048958 5.49385439 12.9375995 6.45548601 14.84863281 7.41357422 C25.50113316 12.84395641 25.50113316 12.84395641 28.71386719 16.74169922 C29.27636719 20.17919922 29.27636719 20.17919922 28.71386719 23.74169922 C25.18640733 27.76746196 21.09928123 30.82992109 16.77636719 33.92919922 C15.78793823 34.6458374 15.78793823 34.6458374 14.77954102 35.37695312 C12.76157576 36.83741477 10.73875128 38.29084925 8.71386719 39.74169922 C8.12895508 40.16112793 7.54404297 40.58055664 6.94140625 41.01269531 C4.1171205 43.03575945 1.28908987 45.05354055 -1.54003906 47.06982422 C-8.1485195 51.78174048 -14.75030786 56.50159736 -21.30224609 61.29199219 C-22.99965999 62.53236183 -24.70286675 63.76479744 -26.40722656 64.99560547 C-35.84610714 72.10709084 -42.93430947 81.98841866 -45.28613281 93.74169922 C-46.16949356 102.5734649 -45.94716039 111.50151357 -45.91113281 120.36669922 C-45.90726449 123.94683071 -45.91088024 127.5264606 -45.93173218 131.10653687 C-45.94366911 133.32039458 -45.9414088 135.5343944 -45.92202759 137.74819946 C-45.97299258 151.94468675 -50.18495437 162.67711991 -59.57910156 173.15185547 C-63.25222355 176.66596785 -67.23073065 179.68365317 -71.28613281 182.74169922 C-72.48629028 183.65181763 -72.48629028 183.65181763 -73.71069336 184.58032227 C-76.14413691 186.41644607 -78.58851347 188.23702729 -81.03613281 190.05419922 C-81.85984375 190.67359375 -82.68355469 191.29298828 -83.53222656 191.93115234 C-84.33273437 192.52476562 -85.13324219 193.11837891 -85.95800781 193.72998047 C-86.67053711 194.26147705 -87.38306641 194.79297363 -88.1171875 195.34057617 C-90.42784205 196.83324237 -92.72582983 197.7536869 -95.28613281 198.74169922 C-95.2488926 182.35551032 -95.18892426 165.96958434 -95.10223007 149.58358955 C-95.06249665 141.97450554 -95.03007536 134.36552409 -95.01513672 126.75634766 C-95.00209051 120.12070371 -94.97505066 113.48528598 -94.93151975 106.84976947 C-94.90897114 103.33940715 -94.89321812 99.82932315 -94.89424896 96.31888199 C-94.89513935 92.39074197 -94.86477411 88.46316652 -94.83203125 84.53515625 C-94.83706161 83.38356522 -94.84209198 82.23197418 -94.84727478 81.04548645 C-94.69950418 69.54970421 -90.77168478 60.4468074 -83.28613281 51.74169922 C-79.82257247 48.46927181 -76.09545885 45.59448858 -72.28613281 42.74169922 C-71.0397736 41.79413162 -69.79369377 40.84619646 -68.54785156 39.89794922 C-60.85675423 34.07130286 -53.07629244 28.36454822 -45.28613281 22.67138672 C-41.50634488 19.90732115 -37.74064876 17.12442267 -33.97631836 14.33935547 C-31.52830982 12.53206558 -29.07372479 10.73402086 -26.61816406 8.93701172 C-24.10117925 7.09262748 -21.6276631 5.22450719 -19.17285156 3.29638672 C-18.34398437 2.65958984 -17.51511719 2.02279297 -16.66113281 1.36669922 C-16.00886719 0.84333984 -15.35660156 0.31998047 -14.68457031 -0.21923828 C-9.44060156 -2.49105536 -5.18735985 -1.98630406 0 0 Z " fill="#F8FBFD" transform="translate(417.2861328125,458.25830078125)"/>
<path d="M0 0 C1.41345703 0.63615234 1.41345703 0.63615234 2.85546875 1.28515625 C16.7608225 8.17070383 24.97971093 19.00632029 31.37109375 32.83203125 C32 35 32 35 32 41 C24.08 41 16.16 41 8 41 C7.175 39.164375 6.35 37.32875 5.5 35.4375 C0.63934248 25.85151649 -5.38676651 21.42829924 -15.49609375 17.87890625 C-25.96074263 15.25399432 -36.45693889 16.33803987 -45.84765625 21.59375 C-53.37589968 26.53827597 -58.21450012 32.51231411 -60.62890625 41.28515625 C-62.00679368 51.36549064 -62.55863744 62.16507956 -57 71 C-56.67257812 71.680625 -56.34515625 72.36125 -56.0078125 73.0625 C-52.27077197 80.26380438 -45.47827819 84.16964107 -38.1328125 87.171875 C-26.94384391 90.12955747 -15.72204869 88.31248792 -5.76171875 82.75 C1.17321098 78.15283378 4.37153048 71.25693904 8 64 C15.92 64 23.84 64 32 64 C30.28177141 77.74582872 23.36421681 89.08079861 12.5625 97.8125 C11.05837746 98.89852746 9.53788147 99.96232911 8 101 C7.33742188 101.46148438 6.67484375 101.92296875 5.9921875 102.3984375 C-7.86935657 111.09484347 -26.71990846 112.15353276 -42.38671875 108.75390625 C-57.9449863 104.26549723 -70.66413922 95.74882361 -78.6875 81.51171875 C-83.6789567 71.9596156 -86.35472563 63.3754213 -86.25 52.5625 C-86.25773438 51.76779297 -86.26546875 50.97308594 -86.2734375 50.15429688 C-86.22638642 35.69785228 -80.21204102 21.33171337 -70 11 C-51.70197041 -4.72486918 -22.40908083 -10.65676289 0 0 Z " fill="#F6F9FC" transform="translate(717,474)"/>
<path d="M0 0 C7.59 0 15.18 0 23 0 C23 14.85 23 29.7 23 45 C39.5 45 56 45 73 45 C73 30.15 73 15.3 73 0 C80.59 0 88.18 0 96 0 C96 35.97 96 71.94 96 109 C88.41 109 80.82 109 73 109 C73 94.48 73 79.96 73 65 C56.5 65 40 65 23 65 C23 79.52 23 94.04 23 109 C15.41 109 7.82 109 0 109 C0 73.03 0 37.06 0 0 Z " fill="#F7FAFC" transform="translate(763,472)"/>
<path d="M0 0 C24.42 0 48.84 0 74 0 C74 6.93 74 13.86 74 21 C57.5 21 41 21 24 21 C24 28.59 24 36.18 24 44 C39.51 44 55.02 44 71 44 C71 50.6 71 57.2 71 64 C55.49 64 39.98 64 24 64 C24 72.25 24 80.5 24 89 C41.16 89 58.32 89 76 89 C76 95.6 76 102.2 76 109 C50.92 109 25.84 109 0 109 C0 73.03 0 37.06 0 0 Z " fill="#F3F6F9" transform="translate(467,472)"/>
<path d="M0 0 C5.47907154 3.94382834 9.16615825 8.52459371 12.390625 14.42578125 C12.7309375 15.02777344 13.07125 15.62976563 13.421875 16.25 C17.24059975 24.40014867 16.54435799 35.01545577 13.765625 43.36328125 C9.69228381 52.97693615 2.50541773 61.19062312 -6.921875 65.86328125 C-16.58748893 69.28434089 -28.99377808 69.25225326 -38.296875 64.92578125 C-48.40545799 58.86345115 -54.52757949 50.72788795 -58.24609375 39.50390625 C-60.05207629 29.17290936 -58.98671547 19.50085705 -53.609375 10.42578125 C-40.55999288 -7.85448325 -19.12735703 -11.53940851 0 0 Z " fill="#F8FBFD" transform="translate(337.609375,428.57421875)"/>
<path d="M0 0 C7.92 0 15.84 0 24 0 C24 29.04 24 58.08 24 88 C39.18 88 54.36 88 70 88 C70 94.93 70 101.86 70 109 C46.9 109 23.8 109 0 109 C0 73.03 0 37.06 0 0 Z " fill="#F1F5F8" transform="translate(555,472)"/>
<path d="M0 0 C0.09990454 5.74335834 0.17195122 11.48619565 0.21972656 17.23022461 C0.23967151 19.17855659 0.26683757 21.12683006 0.30175781 23.07495117 C0.6160965 41.0800862 -1.0058616 54.32299586 -13.88671875 68.00390625 C-20.8599473 74.56613901 -29.00646833 79.89160149 -36.80517578 85.41503906 C-39.71161835 87.51388502 -42.54481834 89.70351761 -45.36889648 91.91162109 C-47 93 -47 93 -49 93 C-49.07489393 87.52314141 -49.12894902 82.04658955 -49.16479492 76.56933594 C-49.17975905 74.71121011 -49.20013773 72.85311883 -49.22631836 70.99511719 C-49.43999623 55.42596088 -48.76034119 41.92928313 -39 29 C-36.17763463 26.14254305 -33.131386 23.74128728 -29.88769531 21.37841797 C-27.59304483 19.70283641 -25.32433166 17.99445258 -23.0546875 16.28515625 C-20.40201501 14.28808078 -17.74732224 12.29441136 -15.08129883 10.31518555 C-11.48058835 7.64086294 -7.91846678 4.97525205 -4.51953125 2.046875 C-2 0 -2 0 0 0 Z " fill="#F5F8FB" transform="translate(432,507)"/>
<path d="M0 0 C5.03754917 3.31445223 10.00857429 6.66316588 14.8125 10.3125 C17.92335647 12.67341786 21.03561229 15.02605458 24.1875 17.33203125 C35.91008661 25.93347917 45.45751425 34.79232084 48.5300293 49.54492188 C49.11364512 53.8354835 49.12409888 58.01198762 49.09765625 62.3359375 C49.0962413 63.21528961 49.09482635 64.09464172 49.09336853 65.00064087 C49.08779877 67.79212942 49.0752519 70.58353594 49.0625 73.375 C49.05748109 75.27473842 49.05291887 77.1744781 49.04882812 79.07421875 C49.03783925 83.71617714 49.02059557 88.35807469 49 93 C45.48019965 91.71842574 42.67099826 90.2254156 39.671875 87.98828125 C38.87136719 87.39466797 38.07085937 86.80105469 37.24609375 86.18945312 C36.42238281 85.57005859 35.59867188 84.95066406 34.75 84.3125 C33.94175781 83.71244141 33.13351563 83.11238281 32.30078125 82.49414062 C3.01134002 60.6793648 3.01134002 60.6793648 0 42 C-0.47530494 34.78344952 -0.28378765 27.53891818 -0.1875 20.3125 C-0.17242677 18.33920292 -0.15874303 16.3658947 -0.14648438 14.39257812 C-0.11368595 9.59477371 -0.06204913 4.79751163 0 0 Z " fill="#F5F8FB" transform="translate(200,507)"/>
<path d="M0 0 C7.59 0 15.18 0 23 0 C23 35.97 23 71.94 23 109 C15.41 109 7.82 109 0 109 C0 73.03 0 37.06 0 0 Z " fill="#F6F9FB" transform="translate(872,472)"/>
<path d="M0 0 C3.98104469 3.53051494 7.59289393 7.89119003 8.30078125 13.296875 C8.3319556 19.8227047 7.91446035 25.59979626 3.5234375 30.72265625 C-1.89589796 35.75843144 -7.63495455 38.08785772 -15 38.4375 C-20.96915742 38.21777641 -25.3562237 36.42639913 -29.7578125 32.38671875 C-34.51544917 27.20388267 -36.4974637 22.23583912 -36.23828125 15.07421875 C-35.42988593 8.03720375 -32.61448163 3.82026904 -27.109375 -0.58984375 C-18.56426132 -6.30241049 -8.49287689 -4.87133239 0 0 Z " fill="#EFF2F7" transform="translate(554,595)"/>
<path d="M0 0 C22.9437751 0 22.9437751 0 28.97265625 5.9453125 C30.91752938 9.83505875 30.5940673 13.77477979 30 18 C28.25314422 21.69527184 26.71453059 23.47717274 23.4375 25.875 C18.50617958 27.48888668 14.17850193 27.18945739 9 27 C9 31.29 9 35.58 9 40 C6.03 40 3.06 40 0 40 C0 26.8 0 13.6 0 0 Z " fill="#EDF0F6" transform="translate(468,592)"/>
<path d="M0 0 C1.51400391 0.01740234 1.51400391 0.01740234 3.05859375 0.03515625 C4.07050781 0.04417969 5.08242188 0.05320312 6.125 0.0625 C7.29869141 0.07990234 7.29869141 0.07990234 8.49609375 0.09765625 C12.00396406 6.55462107 14.73597358 13.15338803 17.25097656 20.03955078 C19.20527192 25.38154489 21.35159601 30.61947594 23.61328125 35.83984375 C24.49609375 38.09765625 24.49609375 38.09765625 24.49609375 40.09765625 C21.52609375 40.09765625 18.55609375 40.09765625 15.49609375 40.09765625 C14.17609375 36.79765625 12.85609375 33.49765625 11.49609375 30.09765625 C5.88609375 29.76765625 0.27609375 29.43765625 -5.50390625 29.09765625 C-5.99890625 31.57265625 -5.99890625 31.57265625 -6.50390625 34.09765625 C-7.14780407 36.1051024 -7.80952878 38.10710749 -8.50390625 40.09765625 C-11.47390625 40.09765625 -14.44390625 40.09765625 -17.50390625 40.09765625 C-15.28021012 32.23908389 -12.54750593 24.62956032 -9.6328125 17.00805664 C-8.86894795 15.00909632 -8.11188894 13.00764703 -7.35546875 11.00585938 C-6.87148916 9.73292251 -6.38712868 8.46013038 -5.90234375 7.1875 C-5.24758057 5.46841431 -5.24758057 5.46841431 -4.57958984 3.71459961 C-3.10245605 0.12100063 -3.10245605 0.12100063 0 0 Z " fill="#F1F4FA" transform="translate(761.50390625,591.90234375)"/>
<path d="M0 0 C3.68004754 3.07042351 5.68839199 5.77582568 6.875 10.4375 C6.91625 11.283125 6.9575 12.12875 7 13 C3.95043561 13.28769475 1.0386085 13.44573506 -2 13 C-3.75 10.6875 -3.75 10.6875 -5 8 C-8.73652622 4.81296293 -12.11109649 4.5415275 -16.84765625 4.70703125 C-19.82074323 5.11171641 -21.68989692 6.10991566 -24 8 C-26.23920243 11.35880365 -26.24603334 12.51576604 -26.1875 16.4375 C-26.18105469 17.38496094 -26.17460938 18.33242188 -26.16796875 19.30859375 C-26.01799627 21.71164122 -25.8000749 23.73312112 -25 26 C-23.0998823 27.24174796 -23.0998823 27.24174796 -21 28 C-20.34 28.33 -19.68 28.66 -19 29 C-14.91444146 29.51436888 -10.78152373 29.92098732 -7.04296875 27.98828125 C-4.40615066 25.85188119 -3.07788274 24.23364822 -2 21 C0.97 21 3.94 21 7 21 C6.46175151 25.57511214 4.89814327 28.43305444 2 32 C-4.95123681 37.3240479 -11.2886581 38.91836436 -20 38 C-26.22481607 36.18077558 -30.44662358 32.33006463 -34 27 C-36.57512362 21.61565062 -37.09195904 15.5897336 -35.34765625 9.85546875 C-32.48608841 3.43229286 -28.0710871 -0.77156516 -21.5625 -3.375 C-13.39627571 -4.80767093 -7.27186794 -4.13974452 0 0 Z " fill="#EFF2F7" transform="translate(618,595)"/>
<path d="M0 0 C2.97 0 5.94 0 9 0 C9 5.61 9 11.22 9 17 C14.94 17 20.88 17 27 17 C27 11.72 27 6.44 27 1 C29.64 1 32.28 1 35 1 C35 13.87 35 26.74 35 40 C32.36 40 29.72 40 27 40 C27 34.72 27 29.44 27 24 C21.06 24 15.12 24 9 24 C9 29.28 9 34.56 9 40 C6.03 40 3.06 40 0 40 C0 26.8 0 13.6 0 0 Z " fill="#F8FCFE" transform="translate(645,592)"/>
<path d="M0 0 C1.2684375 -0.00773438 1.2684375 -0.00773438 2.5625 -0.015625 C6.66514972 0.43145862 8.54021322 1.72635394 11.25 4.8125 C13.46379934 9.16103442 13.72708136 12.46190327 13 17.25 C11.25580563 21.38098667 8.88905804 24.01586028 5 26.25 C-0.07990466 27.09098756 -3.87716993 26.81141503 -8.5 24.5 C-11.40070953 21.88936143 -12.79106309 19.96758427 -13.265625 16.06640625 C-13.23526799 11.68740726 -13.05598394 8.23346888 -11 4.25 C-10.34 4.25 -9.68 4.25 -9 4.25 C-9 3.59 -9 2.93 -9 2.25 C-5.88610696 0.43356239 -3.59222291 -0.0219038 0 0 Z " fill="#232B53" transform="translate(540,598.75)"/>
<path d="M0 0 C10.89 0 21.78 0 33 0 C33 2.64 33 5.28 33 8 C29.04 8 25.08 8 21 8 C21 18.56 21 29.12 21 40 C18.36 40 15.72 40 13 40 C13 29.44 13 18.88 13 8 C8.71 8 4.42 8 0 8 C0 5.36 0 2.72 0 0 Z " fill="#ECF0F6" transform="translate(700,592)"/>
<path d="M0 0 C2.97 0 5.94 0 9 0 C9 5.61 9 11.22 9 17 C9.66 17.33 10.32 17.66 11 18 C10.67 19.65 10.34 21.3 10 23 C15.61 23 21.22 23 27 23 C27 23.33 27 23.66 27 24 C21.06 24 15.12 24 9 24 C9 29.28 9 34.56 9 40 C6.03 40 3.06 40 0 40 C0 26.8 0 13.6 0 0 Z " fill="#EAEEF4" transform="translate(645,592)"/>
<path d="M0 0 C3.63 0 7.26 0 11 0 C16.22321429 10.04464286 16.22321429 10.04464286 17 15 C16.34 15 15.68 15 15 15 C15 16.65 15 18.3 15 20 C14.34 20 13.68 20 13 20 C12.67 20.66 12.34 21.32 12 22 C8.37 22 4.74 22 1 22 C1 20.68 1 19.36 1 18 C0.01 18.33 -0.98 18.66 -2 19 C-1.95875 18.0925 -1.9175 17.185 -1.875 16.25 C-1.7386708 13.09819451 -1.7386708 13.09819451 -3.125 11.09375 C-4 9 -4 9 -3.3203125 6.640625 C-2.21354167 4.42708333 -1.10677083 2.21354167 0 0 Z " fill="#EEF0F5" transform="translate(759,592)"/>
<path d="M0 0 C16.10123275 -0.81410727 16.10123275 -0.81410727 22 4 C25.43173706 7.75096841 25.51439105 10.60504234 25.34765625 15.52734375 C24.82668967 19.23264536 23.52514963 21.27549645 21 24 C17.9375 25.9375 17.9375 25.9375 15 27 C12 26 12 26 10.8125 23.9375 C10.544375 23.298125 10.27625 22.65875 10 22 C10.66 22 11.32 22 12 22 C12 21.01 12 20.02 12 19 C12.99 19 13.98 19 15 19 C15.08096803 17.54257537 15.13917774 16.08387193 15.1875 14.625 C15.22230469 13.81289063 15.25710938 13.00078125 15.29296875 12.1640625 C15.19628906 11.44992187 15.09960938 10.73578125 15 10 C11.85426323 7.90284215 9.98543749 7.47995441 6.3125 6.875 C5.31863281 6.70742188 4.32476562 6.53984375 3.30078125 6.3671875 C2.54152344 6.24601563 1.78226562 6.12484375 1 6 C1.99 5.67 2.98 5.34 4 5 C3.67 4.01 3.34 3.02 3 2 C1.68 2.99 0.36 3.98 -1 5 C-0.67 3.35 -0.34 1.7 0 0 Z " fill="#EFF3F8" transform="translate(473,592)"/>
<path d="M0 0 C0.66 0.66 1.32 1.32 2 2 C1.34 3.32 0.68 4.64 0 6 C1.32 7.32 2.64 8.64 4 10 C3.01 11.32 2.02 12.64 1 14 C1.66 14.66 2.32 15.32 3 16 C1.68 19.96 0.36 23.92 -1 28 C-3.97 28 -6.94 28 -10 28 C-7.3663063 18.39476416 -3.67507822 9.24307344 0 0 Z " fill="#F1F4F8" transform="translate(754,604)"/>
<path d="M0 0 C7.15789474 -0.35789474 7.15789474 -0.35789474 10.5 1.0625 C12.76982201 3.99435344 12.3264586 6.40895535 12 10 C11.67 10.66 11.34 11.32 11 12 C8.24921116 12.91692961 6.64051087 13.10886083 3.8125 13.0625 C1.9253125 13.0315625 1.9253125 13.0315625 0 13 C0 8.71 0 4.42 0 0 Z " fill="#252C51" transform="translate(477,599)"/>
<path d="M0 0 C0.99 0.66 1.98 1.32 3 2 C3.1875 4.625 3.1875 4.625 3 7 C3.66 7 4.32 7 5 7 C5 8.32 5 9.64 5 11 C8.63 11 12.26 11 16 11 C16.33 10.34 16.66 9.68 17 9 C16.67 11.97 16.34 14.94 16 18 C11.05 18 6.1 18 1 18 C0.34 16.68 -0.32 15.36 -1 14 C-0.34 14 0.32 14 1 14 C1.33 12.68 1.66 11.36 2 10 C0.68 9.01 -0.64 8.02 -2 7 C-1.67 6.21625 -1.34 5.4325 -1 4.625 C0.11866511 2.15667503 0.11866511 2.15667503 0 0 Z " fill="#F8FBFD" transform="translate(755,603)"/>
<path d="M0 0 C2.20770805 -0.08165496 4.41630425 -0.13948488 6.625 -0.1875 C7.85476563 -0.22230469 9.08453125 -0.25710938 10.3515625 -0.29296875 C14.30068108 0.02414463 16.6599075 0.90741193 20 3 C20.875 5.1875 20.875 5.1875 21 7 C20.01 7.33 19.02 7.66 18 8 C18 7.34 18 6.68 18 6 C17.44441406 6.16113281 16.88882812 6.32226562 16.31640625 6.48828125 C13.79925267 7.04434722 11.5138488 7.16807052 8.9375 7.1875 C7.65166016 7.20876953 7.65166016 7.20876953 6.33984375 7.23046875 C4 7 4 7 1 5 C1.99 5 2.98 5 4 5 C3.67 4.01 3.34 3.02 3 2 C1.68 2.99 0.36 3.98 -1 5 C-0.67 3.35 -0.34 1.7 0 0 Z " fill="#F5F8FC" transform="translate(473,592)"/>
<path d="M0 0 C-0.33 1.32 -0.66 2.64 -1 4 C-1.639375 4.103125 -2.27875 4.20625 -2.9375 4.3125 C-3.618125 4.539375 -4.29875 4.76625 -5 5 C-5.33 5.99 -5.66 6.98 -6 8 C-6.66 8 -7.32 8 -8 8 C-8.0825 8.78375 -8.165 9.5675 -8.25 10.375 C-9 13 -9 13 -10.9375 14.1875 C-11.9584375 14.5896875 -11.9584375 14.5896875 -13 15 C-14.95216435 16.95216435 -15.84826645 18.53199953 -17 21 C-17 20.34 -17 19.68 -17 19 C-17.99 18.67 -18.98 18.34 -20 18 C-6.23146474 0 -6.23146474 0 0 0 Z " fill="#2F3457" transform="translate(397,519)"/>
<path d="M0 0 C2.80561393 1.40280696 3.00680507 3.0509005 4.125 5.9375 C4.47820313 6.83339844 4.83140625 7.72929688 5.1953125 8.65234375 C6 11 6 11 6 13 C2.7 13 -0.6 13 -4 13 C-2.125 3.89285714 -2.125 3.89285714 0 0 Z " fill="#383C5C" transform="translate(764,601)"/>
<path d="M0 0 C0.928125 0.5259375 0.928125 0.5259375 1.875 1.0625 C2.57625 1.371875 3.2775 1.68125 4 2 C4.66 1.67 5.32 1.34 6 1 C7.32 1.99 8.64 2.98 10 4 C9.01 4.495 9.01 4.495 8 5 C7.34 4.67 6.68 4.34 6 4 C6 4.66 6 5.32 6 6 C4.68 6 3.36 6 2 6 C1.67 6.99 1.34 7.98 1 9 C0.87625 8.401875 0.7525 7.80375 0.625 7.1875 C0.04524015 4.73768652 0.04524015 4.73768652 -2 2 C-1.34 2 -0.68 2 0 2 C0 1.34 0 0.68 0 0 Z M0 9 C0.33 10.98 0.66 12.96 1 15 C-2.465 13.02 -2.465 13.02 -6 11 C-2.25 9 -2.25 9 0 9 Z " fill="#242B56" transform="translate(291,490)"/>
<path d="M0 0 C2.28487244 0.00718513 4.52262435 0.10576055 6.796875 0.3203125 C6.466875 1.3103125 6.136875 2.3003125 5.796875 3.3203125 C5.796875 2.6603125 5.796875 2.0003125 5.796875 1.3203125 C3.78255234 1.82287362 3.78255234 1.82287362 1.796875 3.3203125 C0.49766754 6.86619751 0.49766754 6.86619751 -0.203125 10.3203125 C-2.678125 9.3303125 -2.678125 9.3303125 -5.203125 8.3203125 C-5.203125 4.25111342 -4.56557229 0.66378888 0 0 Z " fill="#E5EDF4" transform="translate(618.203125,615.6796875)"/>
<path d="M0 0 C5 4 5 4 5.5 7.5 C4.99547945 11.03164382 4.54390044 12.55394189 2 15 C1.34 15 0.68 15 0 15 C0 10.05 0 5.1 0 0 Z " fill="#E2E5EE" transform="translate(441,471)"/>
<path d="M0 0 C0.33 0 0.66 0 1 0 C1.185625 1.1446875 1.185625 1.1446875 1.375 2.3125 C1.88102792 5.20267136 1.88102792 5.20267136 4 8 C3.70733874 11.80459643 2.58832839 14.20460534 0 17 C-0.66 17 -1.32 17 -2 17 C-1.34 11.39 -0.68 5.78 0 0 Z " fill="#323B60" transform="translate(353,456)"/>
<path d="M0 0 C0.66 0.33 1.32 0.66 2 1 C1.05125 1.7425 0.1025 2.485 -0.875 3.25 C-2.83626218 4.86838417 -3.9139099 5.8278198 -5.0625 8.125 C-6.4019746 10.8039492 -8.40827975 11.63593671 -11 13 C-10.67 13.66 -10.34 14.32 -10 15 C-11.98 15.99 -13.96 16.98 -16 18 C-13.52019493 10.10971115 -6.01683942 5.28275879 0 0 Z " fill="#DFE4EE" transform="translate(405,526)"/>
<path d="M0 0 C0.33 0.99 0.66 1.98 1 3 C0.01 3.66 -0.98 4.32 -2 5 C-2.99 6.485 -2.99 6.485 -4 8 C-6.1640625 8.29296875 -6.1640625 8.29296875 -8.625 8.1875 C-9.44226563 8.16042969 -10.25953125 8.13335938 -11.1015625 8.10546875 C-11.72804688 8.07066406 -12.35453125 8.03585937 -13 8 C-13 7.34 -13 6.68 -13 6 C-12.14535156 5.65066406 -11.29070313 5.30132813 -10.41015625 4.94140625 C-9.30542969 4.48636719 -8.20070313 4.03132812 -7.0625 3.5625 C-5.96035156 3.11003906 -4.85820313 2.65757812 -3.72265625 2.19140625 C-1.13431084 1.25575392 -1.13431084 1.25575392 0 0 Z " fill="#303856" transform="translate(555,627)"/>
<path d="M0 0 C0.66 0.66 1.32 1.32 2 2 C1.34 3.32 0.68 4.64 0 6 C1.32 7.32 2.64 8.64 4 10 C3.01 11.485 3.01 11.485 2 13 C-0.97 12.505 -0.97 12.505 -4 12 C-3.52309796 10.37433394 -3.04340334 8.74948689 -2.5625 7.125 C-2.29566406 6.22007812 -2.02882813 5.31515625 -1.75390625 4.3828125 C-1 2 -1 2 0 0 Z " fill="#E8EBF2" transform="translate(754,604)"/>
<path d="M0 0 C1.1196437 3.35893109 1.07992835 4.67714354 0 8 C-2.53083271 10.44647162 -3.4252927 11 -7 11 C-7.66 10.67 -8.32 10.34 -9 10 C-8.27683594 9.29423828 -8.27683594 9.29423828 -7.5390625 8.57421875 C-6.90742188 7.95160156 -6.27578125 7.32898438 -5.625 6.6875 C-4.68527344 5.76517578 -4.68527344 5.76517578 -3.7265625 4.82421875 C-1.81913393 2.91187472 -1.81913393 2.91187472 0 0 Z " fill="#37405D" transform="translate(363,624)"/>
<path d="M0 0 C-0.721875 0.70125 -1.44375 1.4025 -2.1875 2.125 C-4.99823813 4.92770745 -7.49516226 7.92262792 -10 11 C-10.66 10.67 -11.32 10.34 -12 10 C-11.67 8.68 -11.34 7.36 -11 6 C-10.01 6 -9.02 6 -8 6 C-7.9175 5.21625 -7.835 4.4325 -7.75 3.625 C-7 1 -7 1 -5.125 -0.375 C-3 -1 -3 -1 0 0 Z " fill="#333759" transform="translate(651,483)"/>
<path d="M0 0 C0 2.66053211 -0.19335496 4.49940039 -1 7 C-1.66 7.66 -2.32 8.32 -3 9 C-2.34 9 -1.68 9 -1 9 C-0.34 10.32 0.32 11.64 1 13 C0.34 13.66 -0.32 14.32 -1 15 C-3.44140066 12.45687431 -3.99243527 11.06051786 -4.4375 7.5 C-3.9393296 3.51463677 -3.10366328 2.42473694 0 0 Z " fill="#E3E4F1" transform="translate(190,471)"/>
<path d="M0 0 C7.75 0.75 7.75 0.75 10 3 C10 4.32 10 5.64 10 7 C6.4124787 5.66749209 3.1635377 4.169283 0 2 C0 1.34 0 0.68 0 0 Z " fill="#343D59" transform="translate(331,424)"/>
<path d="M0 0 C1.32 0.66 2.64 1.32 4 2 C4 2.66 4 3.32 4 4 C4.63474075 5.34882408 5.29848848 6.6846659 6 8 C1.61031544 8 0.23094261 5.87194899 -3 3 C-2.01 2.01 -1.02 1.02 0 0 Z " fill="#2A3256" transform="translate(231,525)"/>
<path d="M0 0 C0.66 0.33 1.32 0.66 2 1 C-2 5 -6 9 -10 13 C-10.66 12.67 -11.32 12.34 -12 12 C-10.75479583 10.55834372 -9.50362077 9.12184348 -8.25 7.6875 C-7.55390625 6.88699219 -6.8578125 6.08648437 -6.140625 5.26171875 C-4.20854665 3.22034399 -2.30056874 1.60107149 0 0 Z " fill="#D2DAE3" transform="translate(296,427)"/>
<path d="M0 0 C0.89203125 0.01804687 1.7840625 0.03609375 2.703125 0.0546875 C3.71632812 0.08949219 3.71632812 0.08949219 4.75 0.125 C0.56559728 2.91460181 -1.25374421 4.125 -6.25 4.125 C-7.24 3.465 -8.23 2.805 -9.25 2.125 C-6.03817851 0.21891902 -3.71117397 -0.09766247 0 0 Z " fill="#E7EBF4" transform="translate(222.25,456.875)"/>
<path d="M0 0 C1.16959987 0.97566112 2.33561177 1.955625 3.5 2.9375 C4.1496875 3.48277344 4.799375 4.02804687 5.46875 4.58984375 C6.22671875 5.28787109 6.22671875 5.28787109 7 6 C7 6.33 7 6.66 7 7 C0.25 6.125 0.25 6.125 -2 5 C-2 4.34 -2 3.68 -2 3 C-1.34 3 -0.68 3 0 3 C0 2.01 0 1.02 0 0 Z " fill="#36395C" transform="translate(286,482)"/>
<path d="M0 0 C1 2 1 2 0.0625 5.125 C-0.288125 6.07375 -0.63875 7.0225 -1 8 C-3.64 8 -6.28 8 -9 8 C-6.14723863 5.06799526 -3.34920216 2.35684596 0 0 Z " fill="#343D5E" transform="translate(417,503)"/>
<path d="M0 0 C2 3 2 3 2 6 C0.02 6.99 -1.96 7.98 -4 9 C-3.71848913 7.68528432 -3.42446661 6.37324233 -3.125 5.0625 C-2.96257813 4.33160156 -2.80015625 3.60070312 -2.6328125 2.84765625 C-2 1 -2 1 0 0 Z " fill="#283253" transform="translate(756,625)"/>
<path d="M0 0 C7.75 -0.125 7.75 -0.125 10 1 C10 1.66 10 2.32 10 3 C7.36 3.33 4.72 3.66 2 4 C2 3.01 2 2.02 2 1 C1.34 0.67 0.68 0.34 0 0 Z " fill="#363B58" transform="translate(477,599)"/>
<path d="M0 0 C0.99 0.66 1.98 1.32 3 2 C-2.14285714 8.57142857 -2.14285714 8.57142857 -6 10 C-4.6302836 6.00499382 -2.74277578 3.19990508 0 0 Z " fill="#2D3457" transform="translate(428,504)"/>
<path d="M0 0 C1 2 1 2 0.375 3.9375 C-1.40739415 6.61109123 -3.08410995 7.68090688 -6 9 C-8.1640625 8.57421875 -8.1640625 8.57421875 -10 8 C-9.44570313 7.59007812 -8.89140625 7.18015625 -8.3203125 6.7578125 C-7.59585937 6.21898437 -6.87140625 5.68015625 -6.125 5.125 C-5.04605469 4.32449219 -5.04605469 4.32449219 -3.9453125 3.5078125 C-1.91747368 2.00126838 -1.91747368 2.00126838 0 0 Z " fill="#3C435F" transform="translate(343,484)"/>
<path d="M0 0 C1.32 0 2.64 0 4 0 C3.6875 1.875 3.6875 1.875 3 4 C2.01 4.66 1.02 5.32 0 6 C-0.33 6.99 -0.66 7.98 -1 9 C-1.66 9 -2.32 9 -3 9 C-2.01 6.03 -1.02 3.06 0 0 Z " fill="#E7EBF3" transform="translate(283,441)"/>
<path d="M0 0 C0.99 0 1.98 0 3 0 C3 3.3 3 6.6 3 10 C2.34 10 1.68 10 1 10 C-0.60725635 6.78548731 -0.05748185 3.56387464 0 0 Z " fill="#2E3459" transform="translate(258,592)"/>
<path d="M0 0 C2 1 2 1 3 3 C2.195625 3.45375 1.39125 3.9075 0.5625 4.375 C-2.08856572 5.74725665 -2.08856572 5.74725665 -3 8 C-3.66 8 -4.32 8 -5 8 C-5 6.68 -5 5.36 -5 4 C-2.5 1.75 -2.5 1.75 0 0 Z " fill="#2B3357" transform="translate(424,498)"/>
<path d="M0 0 C0.99 0.66 1.98 1.32 3 2 C2.34 2 1.68 2 1 2 C1 2.66 1 3.32 1 4 C0.34 4 -0.32 4 -1 4 C-1.33 4.99 -1.66 5.98 -2 7 C-2.66 7 -3.32 7 -4 7 C-4 5.35 -4 3.7 -4 2 C-2.68 1.34 -1.36 0.68 0 0 Z " fill="#EFF0F6" transform="translate(204,464)"/>
<path d="M0 0 C0.33 0 0.66 0 1 0 C0.85904936 1.6254308 0.71207913 3.25034051 0.5625 4.875 C0.48128906 5.77992188 0.40007813 6.68484375 0.31640625 7.6171875 C0 10 0 10 -1 12 C-1.99 12 -2.98 12 -4 12 C-2.66666667 8 -1.33333333 4 0 0 Z " fill="#373D5C" transform="translate(749,540)"/>
<path d="M0 0 C0.99 0.495 0.99 0.495 2 1 C1.01 1.495 1.01 1.495 0 2 C0 1.34 0 0.68 0 0 Z M0 2 C0.33 3.98 0.66 5.96 1 8 C-2.465 6.02 -2.465 6.02 -6 4 C-2.25 2 -2.25 2 0 2 Z " fill="#2D3756" transform="translate(291,497)"/>
<path d="M0 0 C0.33 0.66 0.66 1.32 1 2 C0.34 2 -0.32 2 -1 2 C-1 3.65 -1 5.3 -1 7 C-2.65 6.67 -4.3 6.34 -6 6 C-6 5.01 -6 4.02 -6 3 C-4.02 2.01 -2.04 1.02 0 0 Z " fill="#343B5F" transform="translate(494,615)"/>
<path d="M0 0 C3.17772443 1.80357333 5.37886292 3.37886292 8 6 C3.545 5.01 3.545 5.01 -1 4 C-0.67 2.68 -0.34 1.36 0 0 Z " fill="#2C3154" transform="translate(195,490)"/>
<path d="M0 0 C2.97 0.495 2.97 0.495 6 1 C3.3144406 3.6855594 0.62378672 4.06049974 -3 5 C-2.01 3.35 -1.02 1.7 0 0 Z " fill="#EAEEF6" transform="translate(329,490)"/>
<path d="M0 0 C0.66 0.33 1.32 0.66 2 1 C2 1.99 2 2.98 2 4 C1.21625 4.12375 0.4325 4.2475 -0.375 4.375 C-3.14057822 4.79117993 -3.14057822 4.79117993 -5 7 C-5.66 6.34 -6.32 5.68 -7 5 C-4.69 3.35 -2.38 1.7 0 0 Z " fill="#E3E4EF" transform="translate(395,464)"/>
<path d="M0 0 C0 0.66 0 1.32 0 2 C-2.97 2.66 -5.94 3.32 -9 4 C-9 3.01 -9 2.02 -9 1 C-5.8035914 -0.06546953 -3.34252724 -0.07427838 0 0 Z " fill="#323654" transform="translate(310,421)"/>
<path d="M0 0 C1.32 0 2.64 0 4 0 C3.42655063 2.86724686 3.1385485 3.8614515 1 6 C0.01 5.67 -0.98 5.34 -2 5 C-1.34 3.35 -0.68 1.7 0 0 Z " fill="#F8FBFD" transform="translate(620,617)"/>
<path d="M0 0 C0 3 0 3 -2.5 5.6875 C-3.325 6.450625 -4.15 7.21375 -5 8 C-5.99 7.34 -6.98 6.68 -8 6 C-5.36 4.02 -2.72 2.04 0 0 Z " fill="#35395A" transform="translate(412,579)"/>
<path d="M0 0 C0.66 0.99 1.32 1.98 2 3 C-0.97 5.475 -0.97 5.475 -4 8 C-4.33 7.34 -4.66 6.68 -5 6 C-3.35 4.02 -1.7 2.04 0 0 Z " fill="#DFE4EB" transform="translate(735,562)"/>
<path d="M0 0 C0.99 0 1.98 0 3 0 C1.71480435 2.86697492 0.42870746 4.97607712 -2 7 C-2.66 7 -3.32 7 -4 7 C-2.92598892 4.08482708 -2.22189824 2.22189824 0 0 Z " fill="#313756" transform="translate(716,549)"/>
<path d="M0 0 C0 0.99 0 1.98 0 3 C-0.66 3.66 -1.32 4.32 -2 5 C-2 5.66 -2 6.32 -2 7 C-4.31 7.33 -6.62 7.66 -9 8 C-6.14723863 5.06799526 -3.34920216 2.35684596 0 0 Z " fill="#DADFEC" transform="translate(417,517)"/>
<path d="M0 0 C-3.12432397 2.52349243 -6.38060496 4.27256146 -10 6 C-9.75 4.125 -9.75 4.125 -9 2 C-6.04454879 -0.11103658 -3.56144099 -0.19785783 0 0 Z " fill="#343C57" transform="translate(198,467)"/>
<path d="M0 0 C0.66 0.33 1.32 0.66 2 1 C2 1.99 2 2.98 2 4 C0.02 4.99 -1.96 5.98 -4 7 C-2.92598892 4.08482708 -2.22189824 2.22189824 0 0 Z " fill="#3B4263" transform="translate(595,601)"/>
<path d="M0 0 C1.66611905 -0.042721 3.33382885 -0.04063832 5 0 C6 1 6 1 6.0625 3.5625 C6.041875 4.366875 6.02125 5.17125 6 6 C1.125 3.375 1.125 3.375 0 0 Z " fill="#ECF1F7" transform="translate(242,594)"/>
<path d="M0 0 C0.99 0 1.98 0 3 0 C3.66 1.98 4.32 3.96 5 6 C3.35 6 1.7 6 0 6 C0.33 4.68 0.66 3.36 1 2 C0.34 1.67 -0.32 1.34 -1 1 C-0.67 0.67 -0.34 0.34 0 0 Z " fill="#343B5E" transform="translate(633,549)"/>
<path d="M0 0 C0.66 0.33 1.32 0.66 2 1 C-0.43161094 5.74164134 -0.43161094 5.74164134 -3.0625 6.9375 C-4.0215625 6.9684375 -4.0215625 6.9684375 -5 7 C-5.66 6.34 -6.32 5.68 -7 5 C-4.69 3.35 -2.38 1.7 0 0 Z " fill="#E1E4F1" transform="translate(372,481)"/>
<path d="M0 0 C2.475 0.99 2.475 0.99 5 2 C4.67 3.65 4.34 5.3 4 7 C2.35 5.35 0.7 3.7 -1 2 C-0.67 1.34 -0.34 0.68 0 0 Z " fill="#E5EAF0" transform="translate(272,626)"/>
<path d="M0 0 C1.65 0 3.3 0 5 0 C0.25 4.875 0.25 4.875 -2 6 C-2 4.68 -2 3.36 -2 2 C-1.34 2 -0.68 2 0 2 C0 1.34 0 0.68 0 0 Z " fill="#303657" transform="translate(387,466)"/>
<path d="M0 0 C0.99 0.33 1.98 0.66 3 1 C1 4 1 4 -2.125 4.6875 C-3.07375 4.790625 -4.0225 4.89375 -5 5 C-3.35 3.35 -1.7 1.7 0 0 Z " fill="#353B5F" transform="translate(397,590)"/>
<path d="M0 0 C0.66 0.33 1.32 0.66 2 1 C0.515 3.475 0.515 3.475 -1 6 C-3.475 5.01 -3.475 5.01 -6 4 C-4 2.66666667 -2 1.33333333 0 0 Z " fill="#32385D" transform="translate(723,575)"/>
<path d="M0 0 C1.65 1.65 3.3 3.3 5 5 C2.66666667 5 0.33333333 5 -2 5 C-1.34 3.35 -0.68 1.7 0 0 Z " fill="#EBEEF6" transform="translate(292,506)"/>
<path d="M0 0 C2.31 0.33 4.62 0.66 7 1 C7.33 2.32 7.66 3.64 8 5 C5 5 5 5 2.3125 2.5 C1.549375 1.675 0.78625 0.85 0 0 Z " fill="#2F3758" transform="translate(728,480)"/>
<path d="M0 0 C0.99 0.33 1.98 0.66 3 1 C2.01 2.485 2.01 2.485 1 4 C-2.625 4.6875 -2.625 4.6875 -6 5 C-2.25 1.125 -2.25 1.125 0 0 Z " fill="#DEE1ED" transform="translate(405,457)"/>
<path d="M0 0 C0.66 0 1.32 0 2 0 C1.75 2.375 1.75 2.375 1 5 C-1.0625 6.3125 -1.0625 6.3125 -3 7 C-1.125 1.125 -1.125 1.125 0 0 Z " fill="#E4E3EA" transform="translate(749,619)"/>
<path d="M0 0 C0 1.65 0 3.3 0 5 C-1.98 5.99 -1.98 5.99 -4 7 C-3.625 4.0625 -3.625 4.0625 -3 1 C-1 0 -1 0 0 0 Z " fill="#1B2648" transform="translate(373,610)"/>
<path d="M0 0 C3.25543229 0.34879632 4.01873107 1.02133261 6.25 3.5625 C6.8275 4.366875 7.405 5.17125 8 6 C6.68 6 5.36 6 4 6 C4 5.34 4 4.68 4 4 C3.34 4 2.68 4 2 4 C2 3.01 2 2.02 2 1 C1.34 0.67 0.68 0.34 0 0 Z " fill="#2F3059" transform="translate(608,600)"/>
<path d="M0 0 C0.99 0.33 1.98 0.66 3 1 C3 3.97 3 6.94 3 10 C2.67 10 2.34 10 2 10 C1.71125 8.88625 1.4225 7.7725 1.125 6.625 C0.30758671 2.99708908 0.30758671 2.99708908 -2 1 C-1.34 0.67 -0.68 0.34 0 0 Z " fill="#D6DAE6" transform="translate(487,598)"/>
<path d="M0 0 C0.66 0.99 1.32 1.98 2 3 C1.125 5.6875 1.125 5.6875 0 8 C-0.99 8 -1.98 8 -3 8 C-2.690625 7.236875 -2.38125 6.47375 -2.0625 5.6875 C-1.32106407 3.81210323 -0.63771783 1.91315348 0 0 Z " fill="#373E5B" transform="translate(428,559)"/>
<path d="M0 0 C0.33 0 0.66 0 1 0 C1 1.98 1 3.96 1 6 C0.01 6.495 0.01 6.495 -1 7 C-1.99 6.34 -2.98 5.68 -4 5 C-2.69254251 3.31295807 -1.35827971 1.64639965 0 0 Z " fill="#35405B" transform="translate(741,558)"/>
<path d="M0 0 C3.057952 1.73559438 5.63379989 3.38472619 8 6 C5.125 5.8125 5.125 5.8125 2 5 C0.625 2.4375 0.625 2.4375 0 0 Z " fill="#373F5F" transform="translate(212,502)"/>
<path d="M0 0 C1.32 1.32 2.64 2.64 4 4 C2.02 4.99 2.02 4.99 0 6 C-1.125 2.25 -1.125 2.25 0 0 Z " fill="#2E3955" transform="translate(267,623)"/>
<path d="M0 0 C1.32 0.33 2.64 0.66 4 1 C3.67 3.64 3.34 6.28 3 9 C1.35173889 6.03312999 0.55728913 3.34373475 0 0 Z " fill="#1B2548" transform="translate(497,597)"/>
<path d="M0 0 C1.32 0.66 2.64 1.32 4 2 C4 2.99 4 3.98 4 5 C1.13275314 4.42655063 0.1385485 4.1385485 -2 2 C-1.34 1.34 -0.68 0.68 0 0 Z " fill="#2F375E" transform="translate(730,570)"/>
<path d="M0 0 C0.66 0.33 1.32 0.66 2 1 C-2.39453125 5.00390625 -2.39453125 5.00390625 -4 6 C-4.99 5.67 -5.98 5.34 -7 5 C-4.702779 3.25728062 -2.40133271 1.60088848 0 0 Z " fill="#DCE3ED" transform="translate(712,556)"/>
<path d="M0 0 C1.98 0.99 1.98 0.99 4 2 C3.67 3.98 3.34 5.96 3 8 C1.58622659 5.36095629 0.62759865 2.92879371 0 0 Z " fill="#E3E6F0" transform="translate(201,552)"/>
<path d="M0 0 C0.66 1.32 1.32 2.64 2 4 C0 7 0 7 -3 8 C-1.125 2.25 -1.125 2.25 0 0 Z " fill="#3F4365" transform="translate(659,507)"/>
<path d="M0 0 C1.99097846 2.98646769 2.94124926 5.59687262 4 9 C3.01 9 2.02 9 1 9 C0.67 6.03 0.34 3.06 0 0 Z " fill="#434766" transform="translate(280,470)"/>
</svg>
