<?xml version="1.0" encoding="UTF-8"?>
<svg version="1.1" xmlns="http://www.w3.org/2000/svg" width="1024" height="1024">
<path d="M0 0 C337.92 0 675.84 0 1024 0 C1024 337.92 1024 675.84 1024 1024 C686.08 1024 348.16 1024 0 1024 C0 686.08 0 348.16 0 0 Z " fill="#FEFEFE" transform="translate(0,0)"/>
<path d="M0 0 C18.76744387 6.88957362 36.47784858 16.56183128 54.09375 25.9375 C56.99125954 27.47956229 59.90062602 28.99226435 62.828125 30.4765625 C81.0283564 39.76888749 81.0283564 39.76888749 84.95703125 48.82421875 C87.13581972 57.45817556 86.5835313 66.12895919 82.36328125 73.97265625 C77.43988979 80.46504059 71.48149785 85.01493086 64.7109375 89.44140625 C58.29654767 93.72784375 52.0510195 98.14257143 45.9609375 102.87890625 C39.78789648 107.67275693 33.50618361 112.25403606 27.09887695 116.72900391 C21.72246183 120.49206394 16.42294194 124.34945179 11.1484375 128.25390625 C2.75072748 134.46880876 -5.70128347 140.60397897 -14.18017578 146.70751953 C-17.92766034 149.40652753 -21.67062095 152.11179509 -25.4140625 154.81640625 C-26.91404104 155.89976929 -28.41404104 156.98310263 -29.9140625 158.06640625 C-31.0278125 158.87078125 -31.0278125 158.87078125 -32.1640625 159.69140625 C-38.9140625 164.56640625 -38.9140625 164.56640625 -41.16455078 166.19165039 C-42.66306056 167.27397974 -44.1614332 168.35649899 -45.65966797 169.43920898 C-49.43136102 172.16448469 -53.20545227 174.88631862 -56.984375 177.6015625 C-61.47048457 180.82676342 -65.94547531 184.06697926 -70.4140625 187.31640625 C-71.47850586 188.08815186 -71.47850586 188.08815186 -72.56445312 188.87548828 C-80.89639908 194.93595959 -88.73576972 201.17440177 -96.15625 208.33203125 C-98.4140625 210.31640625 -98.4140625 210.31640625 -100.4140625 210.31640625 C-100.66285156 210.89777344 -100.91164063 211.47914063 -101.16796875 212.078125 C-102.59221052 214.63640253 -104.19492955 216.15166772 -106.3515625 218.12890625 C-132.5463812 243.90393618 -144.42181742 279.86247167 -144.81469727 315.87744141 C-144.85257331 320.72358905 -144.85656814 325.56953301 -144.85431027 330.41580248 C-144.85628359 334.14561029 -144.87673744 337.87531745 -144.89549255 341.60507202 C-144.93608094 350.25131763 -144.95497572 358.89754232 -144.97166443 367.54386139 C-144.99416074 378.55552689 -145.02804824 389.56713356 -145.07886356 400.57870519 C-145.09532628 404.27006474 -145.10746354 407.96133089 -145.10910225 411.65272903 C-145.1264677 449.8294025 -145.1264677 449.8294025 -150.2265625 468.25390625 C-150.61859863 469.71654907 -150.61859863 469.71654907 -151.01855469 471.20874023 C-152.6476711 477.09774923 -154.50773487 482.69323611 -157.3359375 488.1328125 C-158.51260237 490.3831213 -158.51260237 490.3831213 -159.34765625 493.19921875 C-168.04635322 518.62617913 -191.18429705 539.26004618 -212.4140625 554.31640625 C-215.31298288 556.39545693 -218.20702574 558.4812589 -221.1015625 560.56640625 C-221.84092041 561.0967749 -222.58027832 561.62714355 -223.34204102 562.17358398 C-230.28961138 567.17639835 -237.08175064 572.37398679 -243.87548828 577.58276367 C-249.74969156 582.0765563 -255.69838389 586.42389167 -261.74609375 590.6796875 C-264.65889342 592.75015256 -267.51456377 594.88914831 -270.36328125 597.046875 C-271.67703735 598.04158813 -271.67703735 598.04158813 -273.01733398 599.05639648 C-274.7272031 600.35492544 -276.43397783 601.65754373 -278.13696289 602.96508789 C-293.08736929 614.31640625 -293.08736929 614.31640625 -297.4140625 614.31640625 C-297.50573156 566.37450201 -297.5761588 518.43260709 -297.61832382 470.4906324 C-297.6233263 464.82334463 -297.62850363 459.15605704 -297.63378906 453.48876953 C-297.6348383 452.36057274 -297.63588755 451.23237595 -297.63696858 450.06999138 C-297.65434687 431.83170485 -297.68587031 413.59346904 -297.72267368 395.35521254 C-297.7601549 376.62403358 -297.7823135 357.89288108 -297.79041648 339.16166615 C-297.79588938 327.61490274 -297.81313938 316.06828274 -297.84572837 304.5215635 C-297.86696501 296.59038758 -297.87324195 288.65928518 -297.86806801 280.72808293 C-297.8655204 276.16055604 -297.86926757 271.59327875 -297.8908844 267.02579689 C-298.0511474 231.36291173 -298.0511474 231.36291173 -293.4140625 215.31640625 C-293.19027813 214.52704036 -292.96649377 213.73767447 -292.73592806 212.92438841 C-284.243636 183.38026417 -265.5491581 160.0858228 -242.13134766 140.74853516 C-240.49039255 139.38006165 -238.87640701 137.98635828 -237.26953125 136.578125 C-229.91162645 130.15824277 -222.1687764 124.42915774 -214.21875 118.765625 C-209.24498455 115.21511853 -204.35626701 111.55718274 -199.4765625 107.87890625 C-190.61899383 101.20920496 -181.70833392 94.61525437 -172.77294922 88.05029297 C-168.81726629 85.14268997 -164.86589261 82.22924231 -160.9140625 79.31640625 C-159.33074962 78.14971183 -157.74741629 76.98304515 -156.1640625 75.81640625 C-155.3803125 75.23890625 -154.5965625 74.66140625 -153.7890625 74.06640625 C-145.08072917 67.64973958 -136.37239583 61.23307292 -127.6640625 54.81640625 C-126.87999023 54.23866455 -126.09591797 53.66092285 -125.28808594 53.06567383 C-123.70802418 51.90142635 -122.12794611 50.73720102 -120.54785156 49.57299805 C-115.72651245 46.02061551 -110.90564651 42.46759298 -106.08569336 38.91333008 C-104.47786815 37.72857411 -102.86931239 36.5448089 -101.26000977 35.36206055 C-97.66539803 32.71960961 -94.07817366 30.06965416 -90.51953125 27.37890625 C-74.42038896 15.26207158 -56.68295783 3.08359311 -36.70703125 -1.17578125 C-24.5589187 -3.86616393 -12.12384682 -3.77390894 0 0 Z " fill="#010101" transform="translate(828.4140625,262.68359375)"/>
<path d="M0 0 C0.83917969 0.43441406 1.67835938 0.86882812 2.54296875 1.31640625 C12.68926226 6.9003664 21.77403801 14.04171161 31 21 C33.03903837 22.53407569 35.07851763 24.06756297 37.11816406 25.60083008 C38.41615821 26.57660745 39.71368327 27.55300911 41.01074219 28.5300293 C45.96235042 32.24989725 50.97106763 35.88555532 56 39.5 C62.35612567 44.06833835 68.65246429 48.70548053 74.90161133 53.41894531 C79.96740574 57.23678963 85.07202221 60.99907078 90.1875 64.75 C97.0635834 69.79414699 103.85946661 74.93370788 110.625 80.125 C117.5862318 85.46289928 124.6342762 90.62592014 131.83300781 95.63769531 C137.50599226 99.60476104 143.00682112 103.76862462 148.48095703 108.00463867 C152.99812979 111.4932971 157.57221357 114.88718826 162.19384766 118.23608398 C170.35894618 124.16024916 178.11318923 130.34950675 185.6484375 137.0546875 C188.55254429 139.63593273 191.56222218 142.04553231 194.625 144.4375 C219.06333415 164.45883153 234.49019804 193.85798971 239 225 C239.0868857 227.24381214 239.12378021 229.48986368 239.12304783 231.73535728 C239.12420167 232.39061585 239.12535552 233.04587441 239.12654433 233.72098929 C239.12918855 235.91390269 239.12470696 238.10674248 239.12025452 240.2996521 C239.12069067 241.88875395 239.12156638 243.47785572 239.12284368 245.06695712 C239.12508003 249.43161456 239.12107909 253.79624747 239.11606562 258.16090178 C239.11174899 262.86840676 239.11320841 267.57591035 239.1139679 272.28341675 C239.11449236 280.43881941 239.11135364 288.59421407 239.10573006 296.74961472 C239.09760458 308.5409697 239.09499876 320.33232081 239.09374207 332.12367828 C239.0915532 351.25416662 239.08489757 370.3846507 239.07543945 389.51513672 C239.06626107 408.09912088 239.05918232 426.68310388 239.05493164 445.26708984 C239.05453756 446.98523479 239.05453756 446.98523479 239.05413551 448.73808973 C239.05283048 454.48434927 239.05156677 460.23060883 239.05032361 465.97686839 C239.03995613 513.65124854 239.02234229 561.32562406 239 609 C235.17059831 607.77637433 232.20299046 606.70826627 229.07421875 604.1640625 C228.36869873 603.60041992 227.66317871 603.03677734 226.9362793 602.45605469 C226.19418213 601.85180664 225.45208496 601.24755859 224.6875 600.625 C218.642646 595.80700723 212.53709781 591.1593021 206.1875 586.75 C200.16068223 582.55433116 194.30998965 578.2163236 188.515625 573.703125 C179.25517162 566.5319866 169.72335477 559.69835637 160.25 552.8125 C159.00669922 551.90757812 159.00669922 551.90757812 157.73828125 550.984375 C155.6155038 549.4460427 153.48703008 547.91669775 151.35546875 546.390625 C143.83502719 540.97858621 136.7108376 535.41477123 130 529 C129.401875 528.4534375 128.80375 527.906875 128.1875 527.34375 C119.30092998 518.95087832 112.25460015 508.42970696 106 498 C105.56171875 497.30003906 105.1234375 496.60007812 104.671875 495.87890625 C98.77057974 485.99983918 95.34824033 474.7074836 92.25 463.6875 C91.95222656 462.63187866 91.95222656 462.63187866 91.6484375 461.55493164 C88.74611068 450.8389347 87.70701501 440.67779828 87.72875977 429.57446289 C87.72436188 428.15703027 87.71905591 426.73960023 87.71292114 425.32217407 C87.70149711 422.28959136 87.69596731 419.25707781 87.69503975 416.22447395 C87.69308046 411.40832957 87.67492352 406.59232553 87.65428162 401.77622986 C87.60533304 389.80943678 87.57433245 377.84260571 87.55297852 365.87573242 C87.53635882 356.57783436 87.51326676 347.28005781 87.46995777 337.98224062 C87.451937 333.98884813 87.43954082 329.99562056 87.44125557 326.00218391 C87.45367717 285.09483869 80.67252319 249.87320355 53 218 C52.56059082 217.49210938 52.12118164 216.98421875 51.66845703 216.4609375 C34.60728475 196.90051125 13.3585487 181.6997862 -7.828125 166.921875 C-12.23191643 163.84878542 -16.5878909 160.71165077 -20.9375 157.5625 C-21.68193359 157.02359131 -22.42636719 156.48468262 -23.19335938 155.92944336 C-24.70262189 154.83646727 -26.21173597 153.74328617 -27.72070312 152.64990234 C-30.01498452 150.98915323 -32.31174037 149.3318875 -34.609375 147.67578125 C-41.67614162 142.58139766 -48.73241663 137.47448119 -55.75 132.3125 C-60.41368585 128.882561 -65.09709617 125.48350166 -69.8125 122.125 C-82.33877591 113.20307503 -94.78720563 104.17956174 -107.15258789 95.03588867 C-111.94440062 91.49778542 -116.76659926 88.00845846 -121.625 84.5625 C-123.75256664 83.04519388 -125.87670371 81.52329385 -128 80 C-129.32837891 79.04867187 -129.32837891 79.04867187 -130.68359375 78.078125 C-136.28061154 73.92401656 -140.73395513 69.7981346 -143 63 C-144.19556507 44.28254691 -144.19556507 44.28254691 -137.65917969 36.37866211 C-132.49615616 30.83581313 -126.49387661 27.63402767 -119.8125 24.1875 C-118.59695657 23.55150327 -117.38171392 22.9149314 -116.16674805 22.27783203 C-112.84066503 20.54046576 -109.50382956 18.8246903 -106.16455078 17.112854 C-103.92148592 15.95963379 -101.68300898 14.79787714 -99.4453125 13.63427734 C-95.51761461 11.59371385 -91.58071401 9.57194213 -87.63705444 7.56240845 C-86.11300986 6.78390941 -84.59112975 6.0011552 -83.07168579 5.2137146 C-56.9317975 -8.29824695 -27.28752738 -14.39501889 0 0 Z " fill="#010101" transform="translate(253,268)"/>
<path d="M0 0 C1.26639816 -0.00110275 1.26639816 -0.00110275 2.55838013 -0.00222778 C22.18544002 0.04267156 39.38729089 2.92631008 56.75 12.4375 C58.11125 13.16259766 58.11125 13.16259766 59.5 13.90234375 C66.182492 17.6716869 71.94988018 22.44457045 77.75 27.4375 C78.59691406 28.1490625 79.44382812 28.860625 80.31640625 29.59375 C100.07306569 46.66053562 115.74738463 72.97627551 117.75 99.4375 C119.26157226 127.14965802 116.24615637 155.13467716 99.75 178.4375 C99.09515625 179.37335938 98.4403125 180.30921875 97.765625 181.2734375 C82.44161158 202.41188154 63.56798137 216.84120107 39.25 226.4375 C38.19292847 226.8555188 38.19292847 226.8555188 37.11450195 227.28198242 C26.70929497 231.18042924 16.56593224 231.81038909 5.54858398 231.80810547 C3.21587282 231.81244719 0.88510869 231.84877794 -1.44726562 231.88671875 C-15.54082998 231.99371019 -28.84734597 229.53640629 -41.8125 223.8125 C-42.59713623 223.47186523 -43.38177246 223.13123047 -44.19018555 222.78027344 C-73.79269204 209.50410643 -95.78936158 185.95663199 -107.6953125 155.7734375 C-118.36432979 125.42743024 -116.60982106 93.82852971 -103.31445312 64.64990234 C-98.846704 55.36395221 -92.84668015 47.30916875 -86.25 39.4375 C-85.55390625 38.5196875 -84.8578125 37.601875 -84.140625 36.65625 C-83.51671875 35.9240625 -82.8928125 35.191875 -82.25 34.4375 C-81.59 34.4375 -80.93 34.4375 -80.25 34.4375 C-80.25 33.7775 -80.25 33.1175 -80.25 32.4375 C-66.27579697 17.60018442 -47.71972621 7.68248464 -28.25 2.4375 C-27.54713867 2.24244873 -26.84427734 2.04739746 -26.12011719 1.84643555 C-17.55355387 -0.20700386 -8.75766445 -0.00329984 0 0 Z " fill="#010101" transform="translate(510.25,146.5625)"/>
<path d="M0 0 C0.09416352 15.49226129 0.16432701 30.98450069 0.20724869 46.47698212 C0.22772305 53.67322963 0.25554705 60.86929759 0.30175781 68.06542969 C0.34209658 74.35023976 0.36754209 80.63491962 0.37635398 86.91985559 C0.38149098 90.2363391 0.39545633 93.55215994 0.42292023 96.86857605 C0.63357565 123.39714086 -1.71530846 148.88780757 -14.29296875 172.6015625 C-15.61927615 175.24203718 -16.38107261 177.18697308 -17 180 C-17.66 180 -18.32 180 -19 180 C-19.24105469 180.69222656 -19.48210937 181.38445312 -19.73046875 182.09765625 C-26.68571901 197.99842837 -41.56854277 211.60895253 -55 222 C-56.17816724 222.95148019 -57.35380657 223.90609626 -58.52734375 224.86328125 C-65.06548338 230.18405068 -71.68896849 235.2981926 -78.58911133 240.14038086 C-83.32082485 243.47407309 -87.91768053 246.96443713 -92.5 250.5 C-98.15103413 254.85740107 -103.86412003 259.08734147 -109.69799805 263.19580078 C-114.32685333 266.47443639 -118.82406528 269.90738401 -123.3125 273.375 C-129.2740761 277.96951205 -135.30315291 282.45090794 -141.4375 286.8125 C-142.52961792 287.59536377 -142.52961792 287.59536377 -143.64379883 288.39404297 C-148.7588703 292 -148.7588703 292 -151 292 C-151.07044473 276.14330569 -151.12316027 260.28665445 -151.15543652 244.429842 C-151.17082903 237.06531634 -151.19177053 229.70088856 -151.22631836 222.33642578 C-151.25645647 215.90884288 -151.27563014 209.48133095 -151.28226548 203.05367935 C-151.28613698 199.65817518 -151.29507094 196.26287384 -151.31719017 192.86743546 C-151.57167344 148.89398399 -139.10532609 111.84045936 -108 80 C-97.40021007 69.69619024 -85.02242095 61.23240733 -73.10546875 52.53759766 C-59.20500405 42.39926916 -59.20500405 42.39926916 -45.5 32 C-37.88754779 26.1018023 -30.11892559 20.41824052 -22.35253906 14.72509766 C-20.0850196 13.06234418 -17.81952857 11.39686795 -15.5546875 9.73046875 C-14.20318216 8.7369014 -12.85162275 7.74340762 -11.5 6.75 C-10.88334473 6.29633057 -10.26668945 5.84266113 -9.63134766 5.37524414 C-2.30608727 0 -2.30608727 0 0 0 Z " fill="#020202" transform="translate(870,409)"/>
<path d="M0 0 C1.42906215 0.77538948 2.85587061 1.55493336 4.28173828 2.33618164 C5.07653595 2.76983536 5.87133362 3.20348907 6.69021606 3.65028381 C10.03063099 5.60224652 12.92052504 7.95416217 15.875 10.4375 C23.88638669 17.00141678 32.19516254 23.11537554 40.56054688 29.21777344 C44.54985696 32.13230142 48.52440142 35.06681149 52.5 38 C57.25587928 41.5080423 62.01417997 45.01250684 66.78515625 48.5 C77.03773619 56.00454122 87.14269207 63.6710121 97.12304688 71.53417969 C98.69725687 72.76357053 100.29168203 73.96701601 101.890625 75.1640625 C127.85128799 94.84391992 144.59379445 125.57742611 149.52903748 157.41259766 C150.23211235 163.17870037 150.13123606 168.94960774 150.11352539 174.75 C150.11367142 176.00937881 150.11381744 177.26875763 150.1139679 178.56629944 C150.11425324 181.99754896 150.10839914 185.42876308 150.10139394 188.86000443 C150.09511652 192.45411242 150.09455314 196.04822135 150.09336853 199.64233398 C150.09026811 206.43839946 150.08207218 213.23444873 150.07201904 220.03050709 C150.06081777 227.77177644 150.05533736 235.5130466 150.05032361 243.25432205 C150.03988842 259.1695574 150.02231407 275.0847766 150 291 C146.8635542 290.28385791 144.83994072 289.39141645 142.234375 287.48046875 C141.51773682 286.95912354 140.80109863 286.43777832 140.06274414 285.90063477 C139.29953857 285.33530029 138.53633301 284.76996582 137.75 284.1875 C136.55008423 283.30952759 136.55008423 283.30952759 135.32592773 282.41381836 C128.88555724 277.68935248 122.49640886 272.89638537 116.1171875 268.08984375 C111.66243171 264.7385497 107.17715027 261.42933502 102.6875 258.125 C101.49568115 257.24726929 101.49568115 257.24726929 100.27978516 256.35180664 C96.25883616 253.39226812 92.23369178 250.43861407 88.203125 247.4921875 C26.58008228 202.38432194 26.58008228 202.38432194 10 167 C9.54753906 166.03513672 9.54753906 166.03513672 9.0859375 165.05078125 C1.70351743 148.92252118 -0.16825912 131.90638293 -0.11352539 114.32006836 C-0.11367142 113.08005066 -0.11381744 111.84003296 -0.1139679 110.56243896 C-0.11339383 107.18908808 -0.10840573 103.81579967 -0.10139394 100.44245982 C-0.09510932 96.90708144 -0.09455258 93.37170208 -0.09336853 89.83631897 C-0.0902702 83.15361775 -0.08207715 76.47093304 -0.07201904 69.78823906 C-0.0608112 62.17511825 -0.05533572 54.56199661 -0.05032361 46.94886959 C-0.03989317 31.29923685 -0.02232295 15.64962056 0 0 Z " fill="#010101" transform="translate(154,409)"/>
<path d="M0 0 C0.66 0.33 1.32 0.66 2 1 C-4.93 7.93 -11.86 14.86 -19 22 C-19.66 21.67 -20.32 21.34 -21 21 C-14.32497556 13.59083582 -7.66925098 6.41040928 0 0 Z " fill="#292A2A" transform="translate(771,481)"/>
<path d="M0 0 C0.66 0.33 1.32 0.66 2 1 C-5.26 8.26 -12.52 15.52 -20 23 C-20.66 22.67 -21.32 22.34 -22 22 C-19.65213939 19.45244671 -17.29557543 16.91309815 -14.9375 14.375 C-13.95233398 13.30572266 -13.95233398 13.30572266 -12.94726562 12.21484375 C-8.85219311 7.81717967 -4.63719168 3.82312032 0 0 Z " fill="#2D2D2E" transform="translate(582,407)"/>
</svg>
